Coordinates
version=1
nRows=5
nColumns=42
inDegrees=yes

Units are S.I. units (second, meters, Newtons, ...)
If the header above contains a line with 'inDegrees', this indicates whether rotational values are in degrees (yes) or radians (no).

endheader
time	pelvis_tilt	pelvis_list	pelvis_rotation	pelvis_tx	pelvis_ty	pelvis_tz	hip_flexion_r	hip_adduction_r	hip_rotation_r	knee_angle_r	knee_adduction_r	knee_angle_r_beta	ankle_angle_r	subtalar_angle_r	mtp_angle_r	hip_flexion_l	hip_adduction_l	hip_rotation_l	knee_angle_l	knee_adduction_l	knee_angle_l_beta	ankle_angle_l	subtalar_angle_l	mtp_angle_l	lumbar_extension	lumbar_bending	lumbar_rotation	arm_flex_r	arm_add_r	arm_rot_r	elbow_flex_r	pro_sup_r	wrist_flex_r	wrist_dev_r	arm_flex_l	arm_add_l	arm_rot_l	elbow_flex_l	pro_sup_l	wrist_flex_l	wrist_dev_l
      0.26000000	      1.73013206	     -1.80706711	    -10.36112973	     -3.09076486	      0.88067995	      0.07384326	    -18.62813371	     -0.21517170	     -3.98153328	     10.85379374	      4.57791031	      0.18943444	     17.36851004	      6.75958087	     -9.49420539	     23.86659487	     -4.85746857	     -9.40745209	      8.09147476	      4.38409412	      0.14122288	    -11.30593360	    -17.78816275	     -9.49420539	    -12.67167326	      0.29733662	      7.37609118	      2.15287701	    -20.51684987	      5.57741584	     50.76423953	     90.00000001	      0.00000000	      0.00000000	    -18.77571910	     -5.95633506	    -17.11876244	     23.62688172	     90.00000001	      0.00000000	      0.00000000
      0.27000000	      1.54966222	     -1.62226421	    -10.44230449	     -3.07804256	      0.87991256	      0.07350479	    -18.89960997	     -0.67798371	     -3.58830423	     11.46379461	      4.69268888	      0.20008096	     16.61191884	      6.31441904	     -9.45149163	     24.21457781	     -4.56850085	     -8.28237671	      9.40403843	      4.50815972	      0.16413143	    -12.02075718	    -18.18638904	     -9.45149163	    -12.45438853	     -0.00422255	      7.50154454	      1.57130047	    -20.30723335	      5.39225003	     50.11060937	     90.00000001	      0.00000000	      0.00000000	    -18.34418119	     -6.03562012	    -17.18917129	     23.32632516	     90.00000001	      0.00000000	      0.00000000
      0.28000000	      1.39959305	     -1.42799346	    -10.47758387	     -3.06524576	      0.87969663	      0.07316299	    -19.25849469	     -1.10112455	     -2.02444012	     11.93437020	      5.00538926	      0.20829405	     15.08443342	      3.40141725	     -9.27336360	     24.46257837	     -4.32732099	     -7.10423679	     10.71066415	      4.74598168	      0.18693635	    -12.70793722	    -18.54798669	     -9.27336360	    -12.24791819	     -0.33758400	      7.67572700	      1.19131422	    -19.82554450	      4.71529456	     48.76639583	     90.00000001	      0.00000000	      0.00000000	    -17.49715074	     -6.00753326	    -18.03363600	     22.39575438	     90.00000001	      0.00000000	      0.00000000
      0.29000000	      1.28470719	     -1.20851624	    -10.50629834	     -3.05235622	      0.87992822	      0.07290906	    -19.44897825	     -1.55937100	     -0.91925622	     12.72705774	      5.27813226	      0.22212906	     13.45895267	      1.26728399	     -9.13413367	     24.65643078	     -4.16336664	     -6.20140589	     12.13216802	      5.07770189	      0.21174628	    -13.11206705	    -18.77641230	     -9.13413367	    -12.06765592	     -0.73420029	      7.73019833	      0.78686102	    -19.44424869	      4.55148939	     47.45594447	     90.00000001	      0.00000000	      0.00000000	    -16.85558127	     -6.08630175	    -18.42507167	     21.86874190	     90.00000001	      0.00000000	      0.00000000
      0.30000000	      1.17873939	     -1.00942983	    -10.49735473	     -3.03945166	      0.88064415	      0.07265795	    -19.51684152	     -1.98423907	      0.34154282	     13.70377949	      5.66007057	      0.23917607	     11.31264625	     -1.41076489	     -9.01723071	     24.77512853	     -4.09002581	     -5.49515824	     13.53465490	      5.50825125	      0.23622429	    -13.24104377	    -18.93216143	     -9.01723071	    -11.90192981	     -1.11038670	      7.69847371	      0.44436558	    -18.96462352	      4.33164527	     45.96271192	     90.00000001	      0.00000000	      0.00000000	    -16.17102299	     -6.16745467	    -18.67447044	     21.38404532	     90.00000001	      0.00000000	      0.00000000
